<svg width="98" height="76" viewBox="0 0 98 76" fill="none" xmlns="http://www.w3.org/2000/svg">
<path d="M72.8 9.10001C72.2 9.10001 71.7 9.10001 71.1 9.20001V9.10001C70.6 9.20001 70.1 9.20001 69.5 9.30001C68.9 9.40001 68.3 9.50001 67.7 9.60001C63.1 4.00001 56.1 0.700012 48.8 0.700012C42.8 0.800012 37 3.00001 32.5 7.00001C31.6 7.80001 30.7 8.70001 30 9.70001C28.2 9.30001 26.5 9.10001 24.6 9.10001C11.1 9.10001 0.100006 20.1 0.100006 33.6C0.100006 47.1 11.1 58.1 24.6 58.1H49.4V72.5C49.4 73.4 49.8 74.2 50.5 74.7C51 75 51.5 75.2 52.1 75.2C52.4 75.2 52.6 75.2 52.9 75.1C53.2 75 59.4 73.1 65.1 66.7C68 63.5 69.9 60.1 70.9 58.1C71.6 58.2 72.2 58.2 72.9 58.2C86.4 58.2 97.4 47.2 97.4 33.7C97.4 20.1 86.3 9.10001 72.8 9.10001V9.10001ZM72.8 52.8C71.8 52.8 70.7 52.7 69.6 52.5C68.8 52.4 67.9 52.6 67.3 53.2C67 53.5 66.8 53.8 66.6 54.2C66.4 54.6 64.5 59 60.9 63.1C58.7 65.5 56.4 67.2 54.6 68.3V55.5C54.6 54 53.4 52.8 51.9 52.8H24.6C14 52.8 5.50001 44.2 5.50001 33.7C5.50001 23.1 14.1 14.6 24.6 14.6C25.4 14.6 26.1 14.7 26.9 14.7C25.7 17.2 25 19.9 24.7 22.6C22.7 23 20.8 23.8 19.1 25C17.9 25.8 17.6 27.5 18.4 28.8C19.2 30 20.9 30.3 22.2 29.5C24 28.2 26.2 27.6 28.4 27.7C31.6 27.9 34.4 29.5 36.2 32.1C36.7 32.9 37.6 33.3 38.4 33.3C38.9 33.3 39.4 33.2 39.9 32.8C41.1 32 41.5 30.3 40.6 29.1C38.2 25.5 34.4 23.1 30.1 22.5C30.6 19.2 31.9 16 34 13.4C37.6 8.90001 43.1 6.20001 48.9 6.20001C54 6.20001 58.9 8.30001 62.5 11.8C60.3 13 58.2 14.5 56.4 16.4C55.8 16.2 55.3 16 54.7 15.8C51.4 14.9 48 15.1 44.8 16.3C43.4 16.9 42.7 18.4 43.3 19.8C43.9 21.2 45.4 21.9 46.8 21.3C48.9 20.5 51.1 20.4 53.2 21C56.3 21.9 58.7 24.1 59.8 27C60.2 28.1 61.2 28.7 62.3 28.7C62.6 28.7 63 28.6 63.3 28.5C64.7 28 65.4 26.4 64.8 25C63.9 22.8 62.6 20.9 61 19.4C63.7 16.9 67 15.3 70.6 14.7C71.3 14.6 72.1 14.6 72.8 14.6C83.4 14.6 91.9 23.2 91.9 33.7C92 44.2 83.4 52.8 72.8 52.8V52.8Z" fill="#FA5560"/>
<path d="M29.9 38.5C28.1 39.9 26 40.6 23.8 40.6C20.6 40.6 17.7 39.1 15.8 36.6C14.9 35.4 13.2 35.2 12 36.1C10.8 37 10.6 38.7 11.5 39.9C14.4 43.8 18.9 46 23.8 46C27.2 46 30.5 44.9 33.2 42.8C34.4 41.9 34.6 40.2 33.7 39C32.7 37.8 31 37.6 29.9 38.5Z" fill="#FA5560"/>
<path d="M82.5 36.5C80.7 36.5 79.1 35.9 77.7 34.8C75.7 33.3 74.6 30.9 74.6 28.4C74.6 26.9 73.4 25.7 71.9 25.7C70.4 25.7 69.2 26.9 69.2 28.4C69.2 31.4 70.1 34.2 71.8 36.5C70.4 39 68.3 40.9 65.7 42.1C62.1 43.8 58.1 43.8 54.6 42.2C56.3 39.8 57.3 36.9 57.5 33.9C57.6 32.4 56.4 31.2 54.9 31.1C53.4 31 52.2 32.2 52.1 33.7C52 35.9 51.2 38 49.7 39.7C47.7 42.1 44.7 43.4 41.5 43.2C40 43.1 38.7 44.3 38.7 45.7C38.6 47.2 39.8 48.5 41.2 48.5H42.1C45.2 48.5 48.2 47.5 50.8 45.8C51.1 46.2 51.4 46.5 51.8 46.7C54.4 48 57.1 48.6 60 48.6C62.7 48.6 65.4 48 68 46.8C71.3 45.3 74 42.9 75.9 39.9C77.9 41 80.1 41.7 82.5 41.7C84 41.7 85.2 40.5 85.2 39C85.2 37.7 84 36.5 82.5 36.5Z" fill="#FA5560"/>
</svg>
